# xmcd CD database file
#
# Track frame offsets:
#	150
#	20672
#	36427
#	52712
#	69152
#	85072
#	100927
#	121177
#	138732
#	165860
#	182867
#	199885
#	225452
#	242847
#	247325
#	266682
#	284310
#
# Disc length: 4059 seconds
#
# Revision: 1
# Processed by: cddbd v1.4PL0 Copyright (c) Steve Scherf et al.
# Submitted via: CDex 1.51
#
DISCID=ec0fd911
DTITLE=Syleena Johnson - Chapter 2: The Voice
DYEAR=1900
DGENRE=
TTITLE0=The Voice/Intro
TTITLE1=Faithful To You
TTITLE2=Now That I Got You
TTITLE3=Dear You
TTITLE4=Guess What
TTITLE5=I'm Gon' Cry
TTITLE6=Is That You
TTITLE7=Tonight I'm Gonna Let Go
TTITLE8=If You Play Your Cards Right
TTITLE9=No Words
TTITLE10=So Willingly
TTITLE11=Guitars Of The Heart(Happy)
TTITLE12=I Believe In You
TTITLE13=Outro
TTITLE14=Tonight I'm Gonna Let Go - The Remix ft. Busta Rhymes, Rampage, Sham and Spliff Star of The Flipmode Squad
TTITLE15=Joined At The Hip(Bonus Track)
TTITLE16=Guess What (Guess Again) Remix Ft. R. Kelly (Bonus Track)
EXTD=
EXTT0=
EXTT1=
EXTT2=
EXTT3=
EXTT4=
EXTT5=
EXTT6=
EXTT7=
EXTT8=
EXTT9=
EXTT10=
EXTT11=
EXTT12=
EXTT13=
EXTT14=
EXTT15=
EXTT16=
PLAYORDER=
